<svg xmlns="http://www.w3.org/2000/svg" style="transform-origin: 50% 50% 0px; max-height: none; transition: none 0s ease 0s;" width="304" height="206" viewBox="0 0 3040 2060"><g id="l3KgoFYaogNaWPxUfdzRdOb" fill="rgb(87,135,52)" style="transform: none;"><g style="transform: none;"><path id="p9KOPVYxO" d="M515 2046 c-67 -21 -100 -43 -147 -95 -75 -83 -80 -111 -76 -442 l3 -284 27 -51 c32 -60 93 -118 157 -148 l46 -21 995 0 995 0 52 24 c69 31 134 102 162 176 21 56 22 70 19 344 l-3 286 -27 50 c-34 64 -90 118 -153 147 -48 22 -61 23 -360 26 -170 2 -324 1 -342 -3 -40 -7 -121 -79 -168 -150 -52 -79 -94 -108 -163 -113 -78 -5 -112 17 -192 118 -36 46 -82 97 -103 114 l-39 31 -321 2 c-240 2 -332 -1 -362 -11z m-87 -278 c9 -9 12 -76 12 -237 0 -249 6 -278 66 -332 58 -53 95 -59 334 -59 197 0 220 -2 229 -17 6 -11 6 -24 0 -35 -9 -16 -29 -18 -242 -18 -249 1 -275 5 -347 55 -44 30 -81 82 -101 140 -20 61 -20 492 1 505 20 13 34 12 48 -2z"></path><path id="pPb4TA5FA" d="M154 1419 c-32 -39 -99 -194 -121 -278 -30 -112 -36 -296 -14 -396 40 -183 154 -362 290 -454 290 -197 676 -287 1221 -285 360 1 599 33 844 115 356 118 535 276 625 548 66 200 45 431 -58 647 -27 56 -54 104 -60 108 -8 5 -11 -23 -11 -101 l0 -108 45 -70 c74 -114 78 -162 29 -294 -87 -233 -289 -406 -587 -506 -328 -109 -866 -141 -1322 -79 -331 45 -583 147 -749 305 -127 120 -218 291 -220 414 -1 62 3 70 85 202 17 27 19 46 17 139 -2 82 -6 104 -14 93z"></path><path id="p1AxwyxHw3" d="M542 919 c2 -7 23 -26 47 -43 l43 -31 866 -3 c570 -2 879 1 902 7 20 6 51 26 70 46 l34 35 -983 0 c-727 0 -982 -3 -979 -11z"></path></g></g></svg>