<?xml version="1.0" standalone="no"?>
<!DOCTYPE svg PUBLIC "-//W3C//DTD SVG 20010904//EN"
 "http://www.w3.org/TR/2001/REC-SVG-20010904/DTD/svg10.dtd">
<svg version="1.0" xmlns="http://www.w3.org/2000/svg"
 width="568.000000pt" height="568.000000pt" viewBox="0 0 568.000000 568.000000"
 preserveAspectRatio="xMidYMid meet">
<metadata>
Created by potrace 1.14, written by Peter Selinger 2001-2017
</metadata>
<g transform="translate(0.000000,568.000000) scale(0.100000,-0.100000)"
fill="#000000" stroke="none">
<path d="M2054 5462 c-4 -12 -12 -22 -19 -22 -8 0 -15 -10 -17 -22 -2 -13 -7
-21 -12 -20 -14 6 -26 -22 -13 -30 9 -6 8 -8 -3 -8 -11 -1 -10 -4 4 -15 11 -8
14 -15 8 -15 -7 0 -12 -9 -12 -20 0 -13 -5 -18 -15 -14 -11 5 -13 2 -8 -12 5
-13 3 -15 -8 -10 -8 4 -3 -2 10 -13 13 -12 18 -21 13 -21 -6 0 -9 -9 -7 -20 2
-12 -2 -20 -9 -20 -19 0 -16 -30 3 -31 10 0 12 -2 4 -6 -16 -6 -17 -33 -2 -33
5 0 7 -4 4 -10 -3 -5 -1 -19 6 -31 8 -15 8 -19 0 -15 -6 4 -11 2 -11 -3 0 -6
-8 -11 -17 -11 -15 0 -14 -2 3 -16 10 -8 12 -13 4 -9 -8 4 -4 -3 9 -14 13 -12
19 -21 13 -21 -5 0 -9 -10 -8 -22 0 -13 -4 -22 -11 -21 -7 2 -10 -4 -7 -12 4
-8 11 -12 18 -9 6 3 2 -2 -8 -10 -11 -9 -16 -16 -10 -16 5 0 2 -6 -6 -13 -9
-7 -16 -19 -16 -27 -1 -26 -16 -50 -26 -44 -6 4 -8 -1 -4 -14 4 -11 2 -23 -4
-27 -6 -3 -8 -11 -5 -16 4 -5 1 -9 -4 -9 -6 0 -10 -3 -9 -7 3 -16 -25 -62 -35
-56 -6 3 -7 1 -3 -5 3 -6 1 -14 -5 -17 -5 -4 -8 -13 -5 -21 3 -8 -1 -17 -10
-21 -8 -3 -13 -11 -10 -18 3 -8 -2 -16 -9 -19 -9 -3 -12 -12 -8 -22 4 -11 3
-15 -5 -10 -6 3 -13 2 -17 -4 -3 -5 -11 -10 -16 -10 -6 0 -7 6 -3 13 6 9 5 9
-7 0 -12 -10 -18 -10 -29 0 -9 8 -11 8 -6 0 7 -12 -48 -13 -60 0 -4 4 -14 1
-22 -6 -12 -10 -16 -9 -20 1 -3 10 -7 10 -19 1 -11 -10 -16 -10 -23 0 -6 11
-8 11 -12 0 -3 -9 -7 -9 -18 3 -11 11 -22 13 -42 7 -16 -4 -28 -5 -28 -1 0 4
-10 8 -22 8 -13 1 -37 6 -55 12 -28 9 -31 8 -27 -6 5 -13 2 -13 -10 2 -9 11
-16 16 -16 10 0 -5 -5 -2 -10 6 -8 12 -10 12 -10 1 0 -14 -24 9 -45 45 -10 16
-12 16 -27 0 -20 -19 -39 -21 -35 -3 1 6 -6 11 -15 11 -10 -1 -14 4 -11 12 6
17 -32 58 -46 49 -17 -10 -51 4 -45 19 5 13 -6 16 -58 17 -16 1 -28 5 -28 10
0 5 -7 9 -16 9 -8 0 -13 4 -10 9 10 16 -21 20 -41 6 -21 -17 -37 -19 -28 -5 3
6 0 10 -8 10 -8 0 -18 -7 -21 -16 -3 -8 -10 -13 -15 -10 -5 3 -17 -6 -26 -20
-12 -18 -13 -24 -4 -19 8 3 5 -1 -6 -10 -16 -13 -17 -17 -6 -24 11 -7 11 -9 0
-14 -11 -4 -11 -6 -1 -6 10 -1 9 -5 -3 -17 -15 -16 -14 -18 9 -34 15 -9 23
-20 19 -23 -3 -4 -1 -7 5 -7 6 0 9 -7 6 -15 -4 -8 -11 -12 -18 -9 -6 3 -2 -2
8 -10 11 -9 16 -16 10 -16 -5 0 -2 -6 7 -13 27 -20 40 -52 27 -65 -9 -9 -8
-12 6 -12 9 0 14 -5 11 -10 -3 -6 4 -14 17 -19 13 -6 19 -10 13 -10 -5 -1 4
-13 20 -27 17 -14 25 -23 18 -20 -23 12 -25 -16 -2 -37 13 -12 25 -21 26 -19
2 1 6 2 11 2 4 0 0 -5 -8 -10 -12 -7 -12 -10 -1 -10 7 0 11 -6 7 -15 -3 -8 -1
-15 4 -15 5 0 8 -16 6 -35 -1 -19 2 -35 6 -35 5 0 6 -4 3 -10 -3 -5 -1 -10 5
-10 8 0 8 -6 0 -20 -6 -11 -7 -20 -2 -20 5 0 9 -7 9 -15 0 -8 -3 -15 -7 -15
-4 0 -7 -7 -7 -14 0 -8 5 -14 11 -13 6 1 10 -35 10 -100 1 -66 4 -99 11 -96 5
3 5 0 -2 -7 -6 -7 -9 -19 -6 -28 4 -9 2 -13 -4 -9 -6 4 -13 -3 -16 -15 -5 -17
-9 -19 -21 -9 -11 10 -17 8 -30 -11 -9 -12 -16 -18 -16 -13 0 6 -7 2 -14 -8
-10 -13 -16 -15 -21 -7 -5 8 -13 5 -27 -9 -10 -12 -24 -18 -30 -15 -7 4 -8 2
-4 -4 4 -7 2 -12 -4 -12 -6 0 -9 -4 -6 -8 3 -5 -10 -8 -29 -7 -18 0 -32 -2
-30 -5 1 -3 -3 -11 -11 -17 -9 -9 -15 -9 -19 -2 -5 7 -14 4 -26 -7 -10 -9 -19
-13 -19 -9 0 5 -7 0 -16 -11 -8 -10 -12 -12 -8 -4 7 12 5 13 -8 3 -8 -7 -18
-10 -21 -6 -4 3 -7 1 -7 -6 0 -7 -4 -10 -9 -6 -5 3 -12 1 -16 -5 -3 -5 -11
-10 -16 -10 -6 0 -7 6 -3 13 5 8 2 8 -9 -2 -11 -9 -17 -10 -17 -2 0 6 -7 11
-15 11 -8 0 -15 5 -15 10 0 6 -6 5 -14 -2 -9 -8 -11 -17 -5 -24 5 -7 3 -11 -6
-11 -8 0 -15 4 -15 8 0 4 -9 5 -20 2 -11 -3 -20 -1 -20 4 0 5 -6 10 -12 11 -7
1 -27 3 -45 5 -18 3 -31 0 -30 -5 1 -6 -6 -12 -16 -13 -9 -2 -17 2 -17 8 0 8
-3 8 -11 0 -9 -9 -15 -8 -25 2 -12 12 -18 10 -40 -11 -20 -21 -28 -23 -39 -14
-8 7 -23 9 -32 6 -15 -6 -15 -8 -3 -16 11 -7 11 -10 3 -11 -25 -3 -53 -7 -59
-8 -4 0 -1 -7 5 -15 9 -10 8 -15 -4 -20 -8 -3 -15 -10 -15 -16 0 -6 6 -8 13
-4 8 5 8 2 -2 -9 -10 -13 -10 -17 -1 -17 10 0 10 -3 0 -15 -10 -12 -10 -15 3
-15 10 0 14 -6 11 -15 -4 -9 0 -15 7 -15 11 0 11 -3 -1 -10 -13 -9 -13 -10 0
-11 8 -1 18 -1 23 0 4 0 7 -6 7 -16 0 -9 3 -14 6 -10 10 10 36 -22 28 -35 -4
-7 -4 -10 1 -6 4 4 14 3 20 -2 7 -6 26 -12 43 -13 25 -2 29 -6 27 -25 -2 -19
2 -23 16 -19 11 3 17 2 14 -3 -3 -4 8 -8 23 -9 59 -1 63 -3 60 -30 -3 -27 19
-37 34 -16 5 6 8 5 8 -3 0 -7 5 -10 10 -7 6 3 10 1 10 -5 0 -6 5 -8 10 -5 6 3
13 -1 16 -9 3 -9 11 -13 16 -10 6 4 9 1 6 -6 -4 -14 1 -22 46 -72 14 -16 20
-28 13 -28 -7 0 -3 -6 8 -12 30 -18 45 -35 45 -53 0 -9 4 -14 9 -11 11 7 23
-22 15 -35 -3 -5 0 -9 5 -9 6 0 11 -7 11 -16 0 -8 5 -12 11 -8 7 4 9 -2 7 -17
-2 -18 2 -24 15 -23 14 2 15 -1 6 -12 -9 -11 -8 -14 5 -14 9 0 16 -8 16 -20 0
-11 5 -20 11 -20 8 0 8 -4 -1 -15 -6 -8 -8 -20 -4 -26 4 -7 3 -10 -2 -7 -5 3
-18 -4 -29 -15 -11 -11 -14 -17 -7 -12 11 6 11 3 0 -16 -7 -12 -21 -31 -31
-41 -10 -10 -15 -23 -12 -28 4 -6 1 -10 -5 -10 -6 0 -8 -5 -5 -10 3 -5 -1 -10
-9 -10 -9 0 -15 -4 -14 -9 2 -5 -6 -17 -17 -25 -11 -8 -15 -16 -8 -16 6 0 -1
-13 -15 -29 -40 -43 -52 -59 -52 -71 0 -5 -4 -10 -9 -10 -5 0 -12 -9 -16 -19
-4 -12 -12 -18 -21 -14 -9 3 -14 -1 -14 -12 0 -9 -5 -13 -10 -10 -6 4 -18 1
-26 -6 -12 -10 -13 -9 -8 6 5 13 4 16 -4 11 -7 -4 -12 -19 -12 -33 0 -18 -4
-24 -15 -19 -8 3 -15 1 -15 -5 0 -6 -5 -7 -10 -4 -6 3 -10 0 -10 -7 0 -9 -3
-9 -10 2 -7 11 -10 11 -10 2 0 -10 -5 -10 -20 -2 -11 6 -20 7 -19 3 3 -18 -14
-52 -23 -47 -5 3 -16 -2 -24 -12 -9 -11 -13 -13 -9 -6 3 6 1 12 -4 12 -6 0
-11 -5 -11 -11 0 -5 -4 -7 -10 -4 -9 5 -15 -16 -11 -38 1 -5 -3 -6 -8 -3 -5 4
-12 2 -16 -4 -4 -6 -11 -8 -16 -5 -5 4 -9 1 -9 -5 0 -6 -4 -9 -8 -6 -5 3 -9
-1 -9 -9 0 -8 5 -12 11 -9 6 3 3 -1 -8 -10 -10 -8 -15 -19 -11 -25 3 -6 0 -9
-8 -5 -12 4 -15 -3 -15 -31 0 -24 4 -35 12 -32 7 3 13 -4 13 -14 1 -10 -3 -19
-8 -19 -6 0 -7 -5 -4 -10 4 -6 12 -10 18 -9 27 3 47 -2 47 -12 0 -5 -5 -7 -12
-3 -7 4 -8 3 -4 -4 4 -6 14 -8 23 -5 12 5 14 3 8 -7 -6 -9 -4 -11 6 -5 17 11
50 14 43 4 -5 -8 14 -22 34 -25 6 -1 12 2 12 7 0 5 18 8 40 7 21 -1 37 -5 35
-9 -3 -4 2 -9 10 -13 8 -3 15 -1 15 4 0 5 6 7 14 4 7 -3 21 2 30 11 9 10 16
12 16 5 0 -7 7 -4 16 5 13 13 19 14 25 4 4 -7 5 -17 3 -21 -3 -4 6 -8 20 -8
14 0 26 5 26 11 0 6 9 9 20 6 10 -3 21 0 22 5 2 6 11 4 20 -6 9 -9 26 -16 37
-16 12 0 21 -5 21 -11 0 -5 5 -7 10 -4 6 3 10 2 10 -3 0 -6 10 -8 22 -4 13 3
19 1 15 -6 -5 -6 2 -9 18 -7 16 1 25 -3 25 -11 0 -9 11 -14 31 -14 17 0 28 -4
24 -10 -3 -5 1 -10 10 -10 19 0 56 -20 71 -39 6 -8 16 -11 21 -8 6 4 14 0 17
-9 3 -8 10 -12 16 -9 5 3 10 1 10 -4 0 -6 9 -11 20 -11 19 0 25 -15 21 -49 -2
-8 2 -10 11 -5 10 6 10 4 -1 -9 -10 -13 -11 -20 -2 -30 6 -8 8 -17 4 -21 -12
-11 -11 -70 1 -85 9 -12 8 -13 -3 -7 -10 7 -12 3 -6 -13 3 -11 2 -21 -3 -21
-5 0 -9 -10 -8 -22 1 -13 -3 -26 -9 -30 -6 -5 -5 -8 4 -8 11 0 11 -3 1 -15
-10 -12 -10 -15 0 -15 9 0 9 -4 -1 -17 -12 -14 -12 -16 1 -9 10 5 9 3 -2 -6
-12 -10 -15 -25 -12 -56 2 -30 -1 -44 -12 -50 -9 -5 -16 -13 -16 -18 0 -5 -4
-8 -10 -6 -5 1 -7 -2 -3 -8 3 -5 2 -10 -2 -10 -5 0 -10 -14 -11 -31 -2 -21
-15 -42 -45 -69 -23 -22 -37 -40 -30 -40 6 0 11 -9 10 -19 0 -11 -4 -18 -7
-16 -8 5 -30 -22 -23 -29 4 -3 -2 -6 -11 -6 -15 0 -17 -6 -12 -33 5 -25 2 -36
-15 -50 -23 -20 -22 -64 1 -59 10 1 9 -3 -4 -13 -20 -15 -20 -15 0 -30 16 -13
17 -16 4 -25 -12 -8 -11 -10 8 -10 12 0 22 -4 22 -10 0 -5 7 -7 15 -4 10 4 15
0 15 -12 0 -15 2 -16 9 -5 12 18 41 23 41 7 0 -6 10 -12 21 -13 12 -1 19 1 16
4 -10 9 22 35 34 27 8 -4 9 -3 5 4 -4 7 -3 12 3 12 5 0 13 -5 16 -11 5 -6 12
-4 22 8 8 10 11 11 7 3 -4 -8 5 -2 20 14 22 23 30 26 37 15 7 -12 9 -12 9 1 0
12 2 12 8 2 6 -9 12 -6 20 13 6 14 16 25 22 25 6 0 9 3 7 8 -3 4 1 13 9 20 8
7 14 9 14 5 0 -4 5 -1 10 7 8 13 11 12 24 -5 12 -16 15 -17 16 -4 0 9 10 24
22 35 13 12 18 13 13 4 -8 -12 -4 -12 17 2 14 9 39 16 55 16 16 -1 38 4 50 10
11 6 23 8 27 4 4 -3 11 0 16 8 6 9 10 10 10 3 0 -16 51 -12 69 5 9 9 17 10 26
2 10 -8 15 -8 20 0 5 7 11 5 20 -7 13 -17 14 -17 20 -1 6 14 11 15 26 7 13 -7
19 -6 19 1 0 7 6 8 19 0 14 -7 21 -6 24 3 4 8 6 7 6 -3 1 -12 3 -12 10 -2 7
11 11 11 24 -2 11 -12 17 -13 20 -3 3 7 6 4 6 -6 1 -11 6 -15 13 -11 6 4 8 3
4 -4 -3 -6 -1 -14 5 -17 5 -4 8 -13 6 -19 -3 -7 3 -19 14 -26 14 -11 15 -16 6
-22 -9 -6 -9 -8 1 -8 6 0 12 -7 12 -15 0 -9 7 -18 15 -21 8 -4 12 -10 9 -15
-3 -5 0 -9 6 -9 6 0 8 -4 5 -10 -3 -5 -2 -10 4 -10 5 0 8 -11 7 -25 -2 -13 1
-22 5 -19 5 3 9 -2 9 -10 0 -9 5 -16 12 -16 6 0 8 -3 5 -7 -4 -3 -2 -12 4 -20
6 -7 8 -13 3 -13 -5 0 -3 -4 3 -8 7 -5 14 -20 15 -35 1 -15 6 -27 10 -27 4 0
8 -7 8 -15 0 -8 4 -15 10 -15 5 0 7 -7 4 -15 -4 -8 -9 -13 -13 -11 -9 6 -6
-53 4 -62 5 -4 5 0 0 8 -6 12 -5 12 5 4 8 -8 9 -20 4 -35 -4 -13 -7 -28 -6
-33 2 -5 -5 -18 -15 -29 -12 -14 -13 -18 -3 -12 12 7 13 6 4 -6 -13 -16 -15
-51 -2 -43 19 12 26 -8 14 -38 -16 -36 -10 -72 10 -64 15 6 14 -15 -1 -26 -6
-5 -5 -8 4 -8 10 0 10 -6 -4 -26 -9 -15 -12 -23 -6 -20 14 9 54 -32 45 -46 -5
-7 -2 -9 8 -5 11 4 18 -1 21 -14 5 -20 27 -27 27 -9 0 7 6 7 19 0 15 -8 22 -7
28 5 5 8 20 16 33 19 14 2 24 9 22 15 -1 6 5 14 13 17 8 4 15 10 15 16 0 5 -6
6 -12 2 -10 -5 -10 -3 0 7 7 8 20 14 30 14 9 0 16 6 15 13 -2 6 2 12 9 12 6 0
8 3 5 7 -4 3 1 15 10 25 16 18 16 19 -3 12 -18 -6 -18 -6 1 9 15 11 22 12 27
4 6 -9 8 -8 8 1 0 7 5 10 12 6 6 -4 8 -3 4 4 -3 6 -1 14 5 18 8 4 7 9 -2 15
-11 7 -11 9 1 9 11 0 12 2 3 8 -23 14 7 62 35 57 12 -2 20 0 17 5 -3 4 1 11 7
13 9 4 9 6 1 6 -18 1 -3 40 28 72 29 29 46 39 33 17 -4 -7 -3 -8 4 -4 7 4 12
15 12 24 0 13 2 14 9 4 6 -10 10 -8 14 9 4 13 9 20 13 17 3 -4 22 9 42 28 19
19 41 34 49 34 7 0 13 3 13 8 0 8 60 46 75 47 16 1 36 16 31 23 -2 4 12 14 30
23 19 9 34 13 34 8 0 -5 9 -9 20 -9 11 0 20 -4 20 -10 0 -5 3 -9 8 -9 20 3 32
-2 32 -16 0 -8 3 -14 8 -14 20 3 32 -2 32 -16 0 -8 6 -12 13 -9 8 3 20 -2 27
-11 7 -8 17 -15 22 -15 15 0 38 -27 30 -35 -4 -4 -2 -6 3 -5 23 5 46 -1 40
-10 -3 -5 0 -10 7 -10 7 0 19 -9 26 -20 7 -11 17 -20 24 -20 6 0 26 -16 43
-35 18 -19 35 -32 38 -28 4 3 6 -5 5 -18 -2 -47 1 -53 17 -39 20 17 28 7 27
-31 0 -17 7 -43 16 -57 10 -15 11 -23 5 -19 -19 12 -16 -8 4 -24 11 -9 14 -10
9 -2 -5 9 -2 11 8 7 9 -3 16 -13 16 -21 0 -8 5 -11 13 -7 6 4 9 4 5 0 -11 -13
13 -68 28 -62 8 3 14 -1 14 -9 0 -8 5 -15 10 -15 6 0 10 -7 10 -16 0 -8 5 -12
10 -9 6 3 10 1 10 -6 0 -8 4 -8 15 1 12 10 15 9 15 -8 0 -24 23 -35 39 -19 8
8 11 8 11 -1 0 -7 9 -12 20 -12 12 0 17 5 14 14 -3 7 2 16 11 20 9 3 13 2 10
-4 -3 -6 1 -7 10 -4 9 4 14 12 11 20 -3 7 0 14 5 16 6 2 12 12 13 23 2 11 10
19 17 17 9 -2 8 2 -4 15 -16 18 -16 20 1 37 12 13 13 16 2 10 -13 -7 -13 -5
-1 9 7 9 11 26 8 37 -3 11 -1 20 3 20 4 0 6 8 3 19 -3 10 0 22 6 25 6 4 11 12
11 17 0 6 -5 7 -11 3 -8 -4 -9 0 -4 15 3 12 2 21 -4 21 -5 0 -8 9 -6 20 2 11
0 20 -5 20 -4 0 -7 8 -5 18 1 9 7 16 13 15 6 -1 13 4 16 12 3 8 1 15 -3 15 -5
0 -8 8 -6 18 1 9 -2 25 -7 35 -6 11 -5 17 2 17 6 0 8 5 5 10 -4 6 -1 17 5 25
7 8 10 15 6 15 -4 0 0 12 7 28 8 15 13 35 11 45 -1 11 0 16 3 13 8 -8 33 13
33 28 0 6 -5 4 -10 -4 -7 -10 -10 -11 -10 -2 0 7 6 15 14 18 8 3 13 13 11 22
-1 9 1 19 4 22 14 10 52 80 44 80 -4 0 0 5 10 11 9 6 15 14 12 20 -4 5 0 12 9
15 8 3 13 14 11 25 -2 11 0 17 4 14 5 -3 12 2 15 11 3 8 10 12 16 9 5 -3 10 0
10 7 0 9 3 9 10 -2 5 -8 10 -10 10 -4 0 8 11 9 35 4 19 -4 35 -4 35 0 0 4 18
4 40 0 27 -5 40 -4 40 4 0 6 5 4 10 -4 8 -12 10 -12 10 -1 0 10 3 11 13 2 8
-6 17 -8 20 -4 4 3 7 1 7 -5 0 -6 13 -10 30 -10 17 1 27 5 23 11 -4 6 -1 7 8
1 8 -4 23 -10 34 -11 11 -2 21 -8 23 -13 2 -6 11 -6 23 0 14 8 19 7 19 -2 0
-9 3 -9 10 2 7 11 10 11 10 2 0 -7 4 -11 9 -7 6 3 14 -3 20 -12 8 -14 11 -15
11 -3 0 9 6 5 15 -10 8 -14 15 -20 15 -15 0 6 5 3 10 -5 6 -9 10 -11 10 -3 0
21 32 2 73 -41 37 -40 39 -40 53 -21 14 19 15 19 20 -2 4 -12 15 -25 25 -28
11 -4 17 -10 14 -15 -3 -4 5 -10 17 -13 12 -4 25 -1 29 4 5 8 9 8 13 0 4 -6
12 -8 18 -5 7 4 8 2 4 -4 -4 -8 0 -12 11 -12 15 0 16 -2 3 -10 -13 -8 -12 -10
3 -10 9 0 17 6 17 13 0 9 3 8 9 -2 5 -8 11 -9 15 -3 3 6 14 8 25 5 10 -2 25 2
33 11 9 8 18 12 22 9 3 -4 6 -1 6 6 0 7 3 10 8 7 4 -2 8 26 8 62 0 50 -3 70
-15 79 -12 10 -13 12 -2 13 10 0 11 3 2 13 -6 8 -8 17 -4 20 3 4 0 14 -8 24
-9 11 -10 14 -1 9 6 -4 12 -5 12 -1 0 3 -11 10 -24 15 -18 7 -22 14 -19 34 6
27 -13 60 -28 50 -5 -3 -9 0 -9 7 0 7 -3 9 -7 6 -7 -7 -36 30 -39 50 -1 7 5
17 14 23 15 8 14 9 -5 10 -12 0 -27 9 -33 20 -6 11 -15 18 -19 16 -4 -3 -8 1
-8 9 0 8 4 15 9 15 4 0 4 9 -2 20 -5 11 -14 29 -20 40 -6 12 -6 21 1 25 9 6 8
16 -9 65 -3 9 2 7 12 -5 10 -11 14 -13 10 -5 -4 8 -14 23 -22 33 -13 14 -13
17 -1 17 12 0 12 2 0 9 -10 6 -10 10 -1 16 9 6 9 10 -1 16 -8 5 -9 9 -3 9 12
0 11 41 -1 59 -3 6 0 11 7 11 10 0 10 2 -1 9 -10 6 -10 10 -1 16 9 6 9 10 -1
16 -8 5 -9 9 -3 9 11 0 11 40 0 58 -3 5 1 15 9 22 8 7 13 16 10 20 -3 4 1 8 8
7 34 -1 48 4 41 15 -5 8 -2 9 10 5 9 -4 15 -3 12 1 -3 4 4 14 16 21 16 10 19
10 13 -1 -3 -7 1 -4 10 7 9 11 18 19 20 18 11 -6 64 34 57 43 -4 4 1 2 12 -6
16 -12 20 -12 30 0 6 8 17 15 24 16 38 3 43 5 38 13 -3 5 6 9 20 9 15 0 29 3
33 8 6 9 27 16 49 17 6 0 12 5 12 11 0 6 7 2 15 -8 8 -11 15 -14 15 -8 0 9 5
10 19 2 14 -7 22 -7 27 2 5 7 2 9 -7 4 -8 -4 -5 -1 5 8 17 14 20 14 32 -2 11
-14 13 -14 14 -2 1 12 3 12 14 -2 9 -12 16 -14 23 -7 8 8 13 7 17 0 4 -6 12
-11 17 -11 6 0 7 4 4 10 -3 6 1 7 9 4 9 -3 16 -1 16 6 0 6 5 8 13 3 6 -4 20
-6 30 -5 9 2 17 -1 17 -6 0 -6 8 -9 18 -7 9 2 20 4 24 4 5 1 7 7 5 14 -1 8 10
12 35 11 21 -1 35 2 32 7 -3 5 2 6 10 3 9 -4 18 1 22 10 3 9 12 16 20 16 8 0
14 9 14 20 0 11 6 23 14 26 8 3 12 12 9 20 -3 8 -10 11 -17 8 -6 -3 -2 2 9 11
20 16 20 16 -2 21 -15 4 -20 12 -18 30 2 22 -6 29 -27 25 -5 0 -8 7 -8 17 0
13 -2 14 -9 4 -7 -11 -10 -10 -15 3 -3 9 -3 22 1 27 3 6 1 8 -5 4 -6 -3 -17 1
-25 9 -17 16 -32 20 -23 6 4 -5 -5 -4 -18 2 -14 7 -24 14 -24 17 2 21 -3 42
-8 37 -4 -3 -15 -2 -25 4 -14 7 -19 6 -19 -3 0 -10 -2 -10 -9 1 -6 9 -10 10
-13 1 -2 -7 -11 -4 -27 9 -13 11 -21 27 -18 35 3 8 -2 16 -13 19 -12 3 -21 -1
-23 -12 -4 -13 -5 -13 -6 2 0 10 -5 16 -10 12 -11 -6 -82 61 -73 69 3 3 -2 6
-12 6 -9 0 -15 4 -11 9 3 5 -2 17 -11 25 -8 9 -12 16 -8 16 4 0 -3 9 -16 20
-13 11 -19 20 -14 20 5 0 1 5 -8 11 -10 5 -18 17 -18 24 0 8 -7 15 -16 15 -9
0 -12 5 -8 12 4 6 -1 17 -10 23 -9 7 -19 23 -21 35 -2 12 -13 30 -25 40 -11 9
-20 25 -20 34 0 9 -4 16 -8 16 -5 0 -9 7 -9 15 0 8 4 12 8 10 4 -3 10 2 13 11
3 9 2 12 -5 8 -6 -3 -5 3 2 14 7 12 17 18 23 15 5 -3 6 -1 2 5 -4 6 3 21 14
32 11 11 18 25 15 30 -4 6 1 10 10 10 9 0 13 5 10 10 -3 6 -1 10 5 10 6 0 8 5
5 10 -3 6 -1 10 5 10 6 0 8 5 5 10 -3 6 1 13 9 16 9 3 16 12 16 19 0 7 14 28
32 46 18 19 31 37 30 42 -1 4 3 7 9 7 5 0 7 5 4 10 -3 6 -2 10 4 10 6 0 24 14
41 30 17 17 35 28 41 25 5 -4 18 -3 30 0 20 7 20 8 3 26 -17 19 -17 20 1 13
14 -6 16 -4 10 6 -5 8 -4 11 1 7 6 -3 16 -2 24 3 9 5 20 4 29 -3 12 -10 13 -9
6 2 -6 11 -3 13 12 9 23 -6 48 11 48 32 0 8 6 14 13 13 6 -2 12 1 12 7 0 5 7
7 15 4 8 -4 15 -1 15 5 0 6 7 11 15 11 13 0 19 11 17 31 -1 4 9 10 21 13 12 3
28 19 35 36 8 16 21 30 29 30 14 0 13 3 -3 22 -10 12 -13 18 -5 13 11 -6 13
-4 8 8 -4 11 -1 17 9 17 12 0 12 2 2 14 -7 8 -16 12 -20 9 -5 -2 -8 3 -8 11 0
9 -9 16 -20 16 -11 0 -21 5 -21 10 -1 6 -2 15 -3 22 -1 14 -36 20 -36 5 0 -5
-3 -7 -6 -4 -4 3 -16 1 -28 -5 -11 -6 -18 -7 -14 -3 11 11 -31 45 -48 38 -8
-3 -12 -8 -9 -12 2 -4 -9 -7 -26 -7 -16 0 -29 4 -29 8 0 5 -4 6 -10 3 -6 -3
-10 -2 -10 3 0 12 -53 2 -62 -11 -4 -7 -13 -6 -24 4 -10 8 -15 9 -11 3 4 -7
-1 -18 -10 -25 -14 -12 -16 -12 -8 0 6 11 4 13 -8 8 -11 -4 -14 -2 -11 7 3 7
-3 19 -13 27 -10 7 -15 9 -11 5 4 -5 0 -15 -10 -22 -13 -9 -20 -10 -31 -1 -12
10 -13 9 -6 -2 6 -11 5 -12 -6 -5 -8 4 -21 9 -29 11 -8 1 -16 7 -18 12 -2 6
-14 11 -26 11 -12 0 -28 6 -35 13 -11 10 -13 9 -7 -3 6 -12 5 -12 -6 1 -7 9
-19 14 -27 11 -9 -3 -11 0 -6 8 6 10 4 12 -8 7 -11 -4 -25 2 -38 16 -12 12
-19 16 -15 10 11 -19 -5 -16 -21 5 -9 10 -11 11 -7 2 5 -9 -1 -8 -15 5 -13 11
-26 20 -30 20 -3 0 -5 4 -3 8 1 5 -3 7 -10 5 -7 -3 -19 1 -26 9 -8 7 -17 11
-22 8 -4 -3 -11 2 -14 11 -4 9 -13 14 -22 10 -8 -3 -12 -2 -9 4 3 6 1 10 -5
10 -6 0 -10 14 -8 33 1 18 -2 38 -6 45 -4 7 -2 12 6 12 10 0 10 2 -1 9 -10 6
-10 10 -1 16 9 6 9 10 -1 16 -8 5 -9 9 -3 9 12 0 11 41 -1 59 -3 6 0 11 7 11
10 0 10 2 -1 9 -7 5 -9 11 -4 14 5 4 8 20 5 38 -3 21 -1 30 6 25 11 -7 10 19
-1 30 -4 4 1 16 10 27 10 11 13 17 6 14 -8 -5 -11 3 -10 27 1 19 6 34 11 33 4
-1 10 6 11 16 2 9 -1 17 -6 17 -6 0 -7 5 -4 10 4 6 11 8 16 5 5 -4 9 1 9 9 0
14 11 20 32 18 3 -1 9 5 12 14 3 8 2 13 -2 11 -4 -3 -12 1 -18 7 -8 9 -8 17 2
31 8 10 14 15 14 9 0 -5 5 -1 11 9 5 9 16 17 23 17 7 0 21 9 31 20 11 12 13
20 6 20 -7 0 -10 4 -7 9 4 5 0 12 -6 14 -10 4 -10 6 0 6 6 1 12 7 12 15 0 8 5
18 12 22 7 5 8 3 3 -7 -7 -12 -6 -12 7 -1 10 8 15 25 13 47 -1 19 2 32 7 29 7
-5 12 10 9 29 0 4 5 7 11 7 8 1 6 6 -5 14 -12 10 -15 16 -7 21 6 4 9 13 6 21
-3 8 0 14 7 14 7 0 8 3 2 8 -5 4 -16 15 -24 25 -12 16 -12 17 5 11 16 -5 16
-4 4 5 -8 6 -23 11 -32 11 -10 0 -18 6 -18 13 0 8 -7 14 -15 14 -8 0 -12 -4
-10 -8 3 -4 -2 -9 -10 -13 -8 -3 -15 -1 -15 4 0 6 -11 10 -25 10 -22 0 -29 -8
-27 -30 0 -3 -11 -5 -24 -5 -13 0 -24 3 -24 8 0 4 -11 0 -25 -9 -14 -9 -22
-20 -19 -25 3 -5 2 -9 -3 -8 -20 3 -34 -2 -28 -11 3 -5 2 -10 -4 -10 -5 0 -15
8 -20 18 -10 16 -10 16 -11 -2 0 -11 -3 -17 -6 -13 -8 8 -33 -16 -27 -25 2 -5
-1 -8 -7 -8 -7 0 -20 -10 -31 -22 -16 -20 -20 -21 -29 -8 -6 10 -10 11 -10 3
0 -7 -6 -13 -14 -13 -8 0 -22 -10 -30 -22 -9 -13 -16 -17 -16 -9 0 10 -3 11
-13 2 -8 -6 -17 -8 -20 -4 -4 3 -10 -2 -13 -11 -5 -13 -9 -15 -15 -5 -6 10
-11 10 -25 -2 -16 -12 -17 -12 -9 1 8 13 6 13 -8 2 -9 -8 -21 -11 -27 -7 -5 3
-10 0 -10 -7 0 -9 -3 -9 -10 2 -8 12 -11 13 -19 1 -6 -10 -10 -10 -16 -2 -5 9
-14 8 -32 -4 -17 -12 -23 -13 -17 -4 6 12 5 12 -9 0 -14 -11 -17 -11 -17 0 0
11 -2 11 -9 0 -8 -12 -12 -12 -24 -2 -11 8 -17 9 -22 1 -5 -8 -11 -8 -19 -1
-7 6 -16 8 -20 4 -11 -12 -76 -11 -76 1 0 6 -5 4 -10 -4 -6 -10 -10 -11 -10
-2 0 6 -7 12 -16 12 -8 0 -12 5 -9 10 3 6 1 10 -4 10 -6 0 -11 7 -11 15 0 8
-4 15 -8 15 -5 0 -8 10 -8 23 1 13 -4 21 -12 19 -8 -1 -12 3 -10 10 3 7 -1 19
-9 26 -7 7 -13 22 -13 33 0 10 -6 18 -12 16 -7 -1 -12 4 -10 12 1 7 -2 19 -8
26 -5 6 -11 24 -12 38 -1 14 -5 24 -9 21 -9 -5 -25 30 -28 62 0 8 -5 13 -9 10
-5 -3 -8 8 -7 24 1 17 -2 30 -6 30 -4 0 -5 10 -1 22 4 16 2 19 -9 14 -8 -4 -5
1 7 11 23 21 30 61 7 42 -9 -8 -13 -8 -14 0 -1 6 -2 17 -3 24 -1 6 2 18 7 25
6 7 7 15 4 19 -4 3 1 12 11 20 10 9 11 11 2 7 -12 -6 -13 -5 -4 7 9 11 9 17
-1 26 -7 6 -15 9 -18 6 -5 -4 -2 23 3 37 1 3 2 8 1 13 0 4 4 7 10 7 8 0 8 4 2
13 -6 6 -9 20 -8 30 2 9 -1 15 -5 12 -12 -8 -9 37 4 54 8 11 8 13 -2 7 -13 -8
-45 52 -35 67 3 5 -4 6 -15 3 -18 -6 -38 15 -34 36 1 4 -5 5 -13 2 -8 -4 -12
-11 -9 -16 4 -6 -1 -6 -13 1 -16 8 -25 6 -42 -10 -11 -11 -21 -17 -21 -13 0 4
-8 -3 -19 -14 -10 -12 -21 -19 -25 -15 -3 3 -6 -4 -6 -16 0 -12 -4 -19 -10
-16 -5 3 -10 1 -10 -5 0 -6 -4 -9 -9 -5 -5 3 -12 1 -15 -4 -4 -5 -2 -12 4 -16
6 -4 5 -12 -5 -21 -8 -9 -15 -22 -15 -29 0 -9 -8 -12 -20 -10 -11 2 -18 0 -15
-6 4 -5 -2 -9 -12 -9 -15 0 -15 -2 -3 -10 12 -7 11 -12 -5 -32 -19 -21 -19
-22 -1 -8 18 14 19 14 7 -7 -6 -13 -8 -23 -4 -23 4 0 1 -5 -7 -10 -11 -7 -11
-10 -2 -10 7 0 10 -5 7 -10 -4 -6 -12 -10 -18 -9 -29 3 -52 -2 -40 -9 13 -8
12 -37 -2 -49 -4 -4 -5 -1 -1 7 4 8 -2 4 -13 -10 -11 -14 -21 -28 -21 -31 0
-3 -11 -12 -25 -19 -13 -7 -22 -18 -18 -23 3 -6 1 -7 -5 -3 -6 4 -20 -2 -32
-14 -11 -11 -20 -17 -20 -12 0 4 -5 -1 -11 -11 -6 -9 -14 -15 -20 -12 -5 4 -9
-1 -9 -10 0 -9 -4 -13 -10 -10 -5 3 -10 1 -10 -4 0 -6 -7 -11 -15 -11 -8 0
-15 -4 -15 -10 0 -5 -9 -10 -19 -10 -11 0 -23 -5 -27 -12 -5 -7 -3 -8 6 -3 9
5 11 4 6 -4 -4 -6 -11 -9 -16 -6 -5 3 -11 1 -15 -5 -4 -6 -11 -8 -16 -5 -5 4
-9 2 -9 -4 0 -5 -9 -13 -20 -16 -11 -4 -18 -10 -15 -15 3 -4 -3 -7 -12 -6 -10
2 -21 -2 -25 -8 -4 -7 -16 -2 -32 14 -15 13 -26 20 -26 17 0 -6 -15 5 -54 38
-12 10 -32 17 -53 18 -7 0 -10 4 -8 8 3 4 -6 14 -20 23 -14 9 -25 13 -25 9 -1
-5 -7 3 -15 17 -7 14 -17 25 -22 25 -5 0 -17 8 -27 18 -10 9 -22 17 -27 17
-13 0 -69 55 -69 68 0 6 -5 12 -11 14 -9 3 -9 10 1 27 7 15 8 21 1 17 -6 -4
-11 -2 -11 5 0 8 -4 8 -12 1 -9 -7 -17 -6 -26 4 -7 8 -10 14 -8 14 3 0 1 11
-4 24 -5 15 -5 27 3 35 8 8 8 11 -2 11 -7 0 -11 6 -8 14 8 19 -3 28 -19 15
-10 -8 -18 -7 -29 5 -12 12 -13 16 -3 16 10 0 10 2 -1 9 -10 6 -10 10 -1 16 8
5 6 11 -7 20 -10 7 -18 19 -18 27 0 7 -6 13 -14 13 -8 0 -19 9 -25 20 -17 31
-56 52 -41 23 4 -7 -2 -3 -13 9 -11 12 -22 19 -26 16 -3 -4 -6 -1 -6 6 0 7 -6
11 -14 8 -7 -3 -19 0 -25 6 -9 9 -13 6 -17 -11z"/>
</g>
</svg>
